<svg width="364" height="48" viewBox="0 0 364 48" fill="none" xmlns="http://www.w3.org/2000/svg">
<g filter="url(#filter0_d_417_14854)">
<rect x="2" y="1" width="360" height="44" rx="4" fill="#2B2F38"/>
<rect x="2.5" y="1.5" width="359" height="43" rx="3.5" stroke="#2B2F38"/>
<path d="M163.625 20.4205C163.564 19.8826 163.314 19.4659 162.875 19.1705C162.436 18.8712 161.883 18.7216 161.216 18.7216C160.739 18.7216 160.326 18.7973 159.977 18.9489C159.629 19.0966 159.358 19.3011 159.165 19.5625C158.975 19.8201 158.881 20.1136 158.881 20.4432C158.881 20.7197 158.945 20.9583 159.074 21.1591C159.206 21.3598 159.379 21.5284 159.591 21.6648C159.807 21.7973 160.038 21.9091 160.284 22C160.53 22.0871 160.767 22.1591 160.994 22.2159L162.131 22.5114C162.502 22.6023 162.883 22.7254 163.273 22.8807C163.663 23.036 164.025 23.2405 164.358 23.4943C164.691 23.7481 164.96 24.0625 165.165 24.4375C165.373 24.8125 165.477 25.2614 165.477 25.7841C165.477 26.4432 165.307 27.0284 164.966 27.5398C164.629 28.0511 164.138 28.4545 163.494 28.75C162.854 29.0455 162.08 29.1932 161.17 29.1932C160.299 29.1932 159.545 29.0549 158.909 28.7784C158.273 28.5019 157.775 28.1098 157.415 27.6023C157.055 27.0909 156.856 26.4848 156.818 25.7841H158.58C158.614 26.2045 158.75 26.5549 158.989 26.8352C159.231 27.1117 159.54 27.3182 159.915 27.4545C160.294 27.5871 160.708 27.6534 161.159 27.6534C161.655 27.6534 162.097 27.5758 162.483 27.4205C162.873 27.2614 163.18 27.0417 163.403 26.7614C163.627 26.4773 163.739 26.1458 163.739 25.767C163.739 25.4223 163.64 25.1402 163.443 24.9205C163.25 24.7008 162.987 24.5189 162.653 24.375C162.324 24.2311 161.951 24.1042 161.534 23.9943L160.159 23.6193C159.227 23.3655 158.489 22.9924 157.943 22.5C157.402 22.0076 157.131 21.3561 157.131 20.5455C157.131 19.875 157.313 19.2898 157.676 18.7898C158.04 18.2898 158.532 17.9015 159.153 17.625C159.775 17.3447 160.475 17.2045 161.256 17.2045C162.044 17.2045 162.739 17.3428 163.341 17.6193C163.947 17.8958 164.424 18.2765 164.773 18.7614C165.121 19.2424 165.303 19.7955 165.318 20.4205H163.625ZM167.439 29V20.2727H169.138V29H167.439ZM168.297 18.9261C168.001 18.9261 167.748 18.8277 167.536 18.6307C167.327 18.4299 167.223 18.1913 167.223 17.9148C167.223 17.6345 167.327 17.3958 167.536 17.1989C167.748 16.9981 168.001 16.8977 168.297 16.8977C168.592 16.8977 168.844 16.9981 169.053 17.1989C169.265 17.3958 169.371 17.6345 169.371 17.9148C169.371 18.1913 169.265 18.4299 169.053 18.6307C168.844 18.8277 168.592 18.9261 168.297 18.9261ZM175.082 32.4545C174.389 32.4545 173.793 32.3636 173.293 32.1818C172.796 32 172.391 31.7595 172.077 31.4602C171.762 31.161 171.527 30.8333 171.372 30.4773L172.832 29.875C172.935 30.0417 173.071 30.2178 173.241 30.4034C173.416 30.5928 173.651 30.7538 173.946 30.8864C174.245 31.0189 174.63 31.0852 175.099 31.0852C175.743 31.0852 176.276 30.928 176.696 30.6136C177.116 30.303 177.327 29.8068 177.327 29.125V27.4091H177.219C177.116 27.5947 176.969 27.8011 176.776 28.0284C176.586 28.2557 176.325 28.4527 175.991 28.6193C175.658 28.786 175.224 28.8693 174.69 28.8693C174.001 28.8693 173.38 28.7083 172.827 28.3864C172.277 28.0606 171.842 27.5814 171.52 26.9489C171.202 26.3125 171.043 25.5303 171.043 24.6023C171.043 23.6742 171.2 22.8788 171.514 22.2159C171.832 21.553 172.268 21.0455 172.821 20.6932C173.374 20.3371 174.001 20.1591 174.702 20.1591C175.243 20.1591 175.681 20.25 176.014 20.4318C176.348 20.6098 176.607 20.8182 176.793 21.0568C176.982 21.2955 177.128 21.5057 177.23 21.6875H177.355V20.2727H179.02V29.1932C179.02 29.9432 178.846 30.5587 178.497 31.0398C178.149 31.5208 177.677 31.8769 177.082 32.108C176.491 32.339 175.825 32.4545 175.082 32.4545ZM175.065 27.4602C175.554 27.4602 175.967 27.3466 176.304 27.1193C176.645 26.8883 176.902 26.5587 177.077 26.1307C177.255 25.6989 177.344 25.1818 177.344 24.5795C177.344 23.9924 177.257 23.4754 177.082 23.0284C176.908 22.5814 176.652 22.233 176.315 21.983C175.978 21.7292 175.562 21.6023 175.065 21.6023C174.554 21.6023 174.128 21.7348 173.787 22C173.446 22.2614 173.188 22.6174 173.014 23.0682C172.844 23.5189 172.759 24.0227 172.759 24.5795C172.759 25.1515 172.846 25.6534 173.02 26.0852C173.194 26.517 173.452 26.8542 173.793 27.0966C174.137 27.339 174.562 27.4602 175.065 27.4602ZM182.997 23.8182V29H181.298V20.2727H182.929V21.6932H183.037C183.238 21.2311 183.552 20.8598 183.98 20.5795C184.412 20.2992 184.955 20.1591 185.611 20.1591C186.205 20.1591 186.726 20.2841 187.173 20.5341C187.62 20.7803 187.967 21.1477 188.213 21.6364C188.459 22.125 188.582 22.7292 188.582 23.4489V29H186.884V23.6534C186.884 23.0208 186.719 22.5265 186.389 22.1705C186.06 21.8106 185.607 21.6307 185.031 21.6307C184.637 21.6307 184.287 21.7159 183.98 21.8864C183.677 22.0568 183.437 22.3068 183.259 22.6364C183.084 22.9621 182.997 23.3561 182.997 23.8182ZM195.095 29V20.2727H196.794V29H195.095ZM195.953 18.9261C195.658 18.9261 195.404 18.8277 195.192 18.6307C194.983 18.4299 194.879 18.1913 194.879 17.9148C194.879 17.6345 194.983 17.3958 195.192 17.1989C195.404 16.9981 195.658 16.8977 195.953 16.8977C196.249 16.8977 196.5 16.9981 196.709 17.1989C196.921 17.3958 197.027 17.6345 197.027 17.9148C197.027 18.1913 196.921 18.4299 196.709 18.6307C196.5 18.8277 196.249 18.9261 195.953 18.9261ZM200.778 23.8182V29H199.08V20.2727H200.71V21.6932H200.818C201.019 21.2311 201.333 20.8598 201.761 20.5795C202.193 20.2992 202.737 20.1591 203.392 20.1591C203.987 20.1591 204.508 20.2841 204.955 20.5341C205.402 20.7803 205.748 21.1477 205.994 21.6364C206.241 22.125 206.364 22.7292 206.364 23.4489V29H204.665V23.6534C204.665 23.0208 204.5 22.5265 204.17 22.1705C203.841 21.8106 203.388 21.6307 202.812 21.6307C202.419 21.6307 202.068 21.7159 201.761 21.8864C201.458 22.0568 201.218 22.3068 201.04 22.6364C200.866 22.9621 200.778 23.3561 200.778 23.8182Z" fill="white"/>
</g>
<defs>
<filter id="filter0_d_417_14854" x="0" y="0" width="364" height="48" filterUnits="userSpaceOnUse" color-interpolation-filters="sRGB">
<feFlood flood-opacity="0" result="BackgroundImageFix"/>
<feColorMatrix in="SourceAlpha" type="matrix" values="0 0 0 0 0 0 0 0 0 0 0 0 0 0 0 0 0 0 127 0" result="hardAlpha"/>
<feOffset dy="1"/>
<feGaussianBlur stdDeviation="1"/>
<feColorMatrix type="matrix" values="0 0 0 0 0.0627451 0 0 0 0 0.0941176 0 0 0 0 0.156863 0 0 0 0.05 0"/>
<feBlend mode="normal" in2="BackgroundImageFix" result="effect1_dropShadow_417_14854"/>
<feBlend mode="normal" in="SourceGraphic" in2="effect1_dropShadow_417_14854" result="shape"/>
</filter>
</defs>
</svg>
